<svg width="0" height="0" class="hidden">
  <symbol xmlns="http://www.w3.org/2000/svg" viewBox="0 0 22 22" id="comment">
    <path d="M10.1251 11C10.1251 11.2984 10.2437 11.5845 10.4546 11.7955C10.6656 12.0065 10.9518 12.125 11.2501 12.125C11.5485 12.125 11.8346 12.0065 12.0456 11.7955C12.2566 11.5845 12.3751 11.2984 12.3751 11C12.3751 10.7016 12.2566 10.4155 12.0456 10.2045C11.8346 9.99353 11.5485 9.875 11.2501 9.875C10.9518 9.875 10.6656 9.99353 10.4546 10.2045C10.2437 10.4155 10.1251 10.7016 10.1251 11V11ZM14.8126 11C14.8126 11.2984 14.9312 11.5845 15.1421 11.7955C15.3531 12.0065 15.6393 12.125 15.9376 12.125C16.236 12.125 16.5221 12.0065 16.7331 11.7955C16.9441 11.5845 17.0626 11.2984 17.0626 11C17.0626 10.7016 16.9441 10.4155 16.7331 10.2045C16.5221 9.99353 16.236 9.875 15.9376 9.875C15.6393 9.875 15.3531 9.99353 15.1421 10.2045C14.9312 10.4155 14.8126 10.7016 14.8126 11ZM5.43763 11C5.43763 11.2984 5.55616 11.5845 5.76714 11.7955C5.97812 12.0065 6.26426 12.125 6.56263 12.125C6.861 12.125 7.14715 12.0065 7.35813 11.7955C7.56911 11.5845 7.68763 11.2984 7.68763 11C7.68763 10.7016 7.56911 10.4155 7.35813 10.2045C7.14715 9.99353 6.861 9.875 6.56263 9.875C6.26426 9.875 5.97812 9.99353 5.76714 10.2045C5.55616 10.4155 5.43763 10.7016 5.43763 11V11ZM20.9345 6.93125C20.4048 5.67266 19.6454 4.54297 18.6775 3.57266C17.7163 2.60796 16.5752 1.84114 15.3189 1.31563C14.0298 0.774219 12.6611 0.5 11.2501 0.5H11.2033C9.78295 0.507031 8.40716 0.788281 7.11341 1.34141C5.86785 1.87232 4.73747 2.64049 3.78529 3.60312C2.8267 4.57109 2.07435 5.69609 1.55404 6.95C1.01498 8.24844 0.743102 9.62891 0.750133 11.0492C0.758086 12.6769 1.14316 14.2806 1.87513 15.7344V19.2969C1.87513 19.5828 1.98872 19.857 2.19091 20.0592C2.3931 20.2614 2.66732 20.375 2.95326 20.375H6.5181C7.97192 21.107 9.57559 21.492 11.2033 21.5H11.2525C12.6564 21.5 14.0181 21.2281 15.3001 20.6961C16.5501 20.1768 17.6869 19.419 18.647 18.4648C19.615 17.5062 20.3767 16.3859 20.9087 15.1367C21.4619 13.843 21.7431 12.4672 21.7501 11.0469C21.7572 9.61953 21.4806 8.23437 20.9345 6.93125V6.93125ZM17.3931 17.1969C15.7501 18.8234 13.5704 19.7188 11.2501 19.7188H11.2103C9.79701 19.7117 8.3931 19.3602 7.15326 18.6992L6.95638 18.5938H3.65638V15.2938L3.55091 15.0969C2.88998 13.857 2.53841 12.4531 2.53138 11.0398C2.52201 8.70313 3.41498 6.50937 5.05326 4.85703C6.6892 3.20469 8.87591 2.29063 11.2126 2.28125H11.2525C12.4244 2.28125 13.5611 2.50859 14.6322 2.95859C15.6775 3.39687 16.615 4.02734 17.4212 4.83359C18.2251 5.6375 18.8579 6.57734 19.2962 7.62266C19.7509 8.70547 19.9783 9.85391 19.9736 11.0398C19.9595 13.3742 19.0431 15.5609 17.3931 17.1969V17.1969Z"></path>
  </symbol>
  <symbol xmlns="http://www.w3.org/2000/svg" viewBox="0 0 19 20" id="like">
    <path d="M18.1383 10.5098C18.532 9.98946 18.75 9.35196 18.75 8.68868C18.75 7.63634 18.1617 6.64024 17.2148 6.08477C16.9711 5.94179 16.6935 5.86654 16.4109 5.8668H10.7906L10.9313 2.98633C10.9641 2.29024 10.718 1.6293 10.2398 1.1254C10.0052 0.877026 9.72212 0.679412 9.40808 0.544769C9.09405 0.410126 8.75574 0.341314 8.41406 0.342585C7.19531 0.342585 6.11719 1.1629 5.79375 2.33712L3.78047 9.62618H0.75C0.335156 9.62618 0 9.96134 0 10.3762V18.9074C0 19.3223 0.335156 19.6574 0.75 19.6574H14.843C15.0586 19.6574 15.2695 19.6152 15.4641 19.5309C16.5797 19.0551 17.2992 17.9652 17.2992 16.7559C17.2992 16.4606 17.257 16.1699 17.1727 15.8887C17.5664 15.3684 17.7844 14.7309 17.7844 14.0676C17.7844 13.7723 17.7422 13.4816 17.6578 13.2004C18.0516 12.6801 18.2695 12.0426 18.2695 11.3793C18.2648 11.084 18.2227 10.791 18.1383 10.5098V10.5098ZM1.6875 17.9699V11.3137H3.58594V17.9699H1.6875ZM16.6031 9.69649L16.0898 10.1418L16.4156 10.7371C16.523 10.9332 16.5786 11.1534 16.5773 11.377C16.5773 11.7637 16.4086 12.1316 16.118 12.3848L15.6047 12.8301L15.9305 13.4254C16.0378 13.6215 16.0935 13.8417 16.0922 14.0652C16.0922 14.452 15.9234 14.8199 15.6328 15.0731L15.1195 15.5184L15.4453 16.1137C15.5526 16.3098 15.6083 16.53 15.607 16.7535C15.607 17.2785 15.2977 17.752 14.8195 17.9676H5.08594V11.2387L7.41797 2.78946C7.4781 2.5729 7.60719 2.38184 7.78566 2.24523C7.96414 2.10863 8.18228 2.03392 8.40703 2.03243C8.58516 2.03243 8.76094 2.08399 8.90156 2.18946C9.13359 2.3629 9.25781 2.6254 9.24375 2.9043L9.01875 7.5543H16.3875C16.8047 7.80977 17.0625 8.24102 17.0625 8.68868C17.0625 9.0754 16.8938 9.44102 16.6031 9.69649Z"></path>
  </symbol>
  <symbol xmlns="http://www.w3.org/2000/svg" viewBox="0 0 20 20" id="save">
    <path d="M18.687 4.87422L14.876 1.06328C14.7002 0.8875 14.4846 0.758594 14.2502 0.688281V0.625H1.12524C0.7104 0.625 0.375244 0.960156 0.375244 1.375V18.625C0.375244 19.0398 0.7104 19.375 1.12524 19.375H18.3752C18.7901 19.375 19.1252 19.0398 19.1252 18.625V5.93359C19.1252 5.53516 18.9682 5.15547 18.687 4.87422ZM6.75024 2.3125H12.7502V4.75H6.75024V2.3125ZM17.4377 17.6875H2.06274V2.3125H5.25024V5.5C5.25024 5.91484 5.5854 6.25 6.00024 6.25H13.5002C13.9151 6.25 14.2502 5.91484 14.2502 5.5V2.82344L17.4377 6.01094V17.6875ZM9.75024 8.35938C7.88696 8.35938 6.37524 9.87109 6.37524 11.7344C6.37524 13.5977 7.88696 15.1094 9.75024 15.1094C11.6135 15.1094 13.1252 13.5977 13.1252 11.7344C13.1252 9.87109 11.6135 8.35938 9.75024 8.35938ZM9.75024 13.6094C8.71431 13.6094 7.87524 12.7703 7.87524 11.7344C7.87524 10.6984 8.71431 9.85938 9.75024 9.85938C10.7862 9.85938 11.6252 10.6984 11.6252 11.7344C11.6252 12.7703 10.7862 13.6094 9.75024 13.6094Z"></path>
  </symbol>
  <symbol xmlns="http://www.w3.org/2000/svg" viewBox="0 0 18 20" id="share">
    <path d="M14.3752 13.5625C13.7073 13.5625 13.0909 13.7969 12.6081 14.1883L7.75181 10.675C7.83312 10.2287 7.83312 9.77133 7.75181 9.325L12.6081 5.81172C13.0909 6.20312 13.7073 6.4375 14.3752 6.4375C15.9268 6.4375 17.1877 5.17656 17.1877 3.625C17.1877 2.07344 15.9268 0.8125 14.3752 0.8125C12.8237 0.8125 11.5627 2.07344 11.5627 3.625C11.5627 3.89687 11.6002 4.15703 11.6729 4.40547L7.0604 7.74531C6.37603 6.83828 5.28853 6.25 4.06274 6.25C1.99087 6.25 0.312744 7.92812 0.312744 10C0.312744 12.0719 1.99087 13.75 4.06274 13.75C5.28853 13.75 6.37603 13.1617 7.0604 12.2547L11.6729 15.5945C11.6002 15.843 11.5627 16.1055 11.5627 16.375C11.5627 17.9266 12.8237 19.1875 14.3752 19.1875C15.9268 19.1875 17.1877 17.9266 17.1877 16.375C17.1877 14.8234 15.9268 13.5625 14.3752 13.5625ZM14.3752 2.40625C15.0479 2.40625 15.594 2.95234 15.594 3.625C15.594 4.29766 15.0479 4.84375 14.3752 4.84375C13.7026 4.84375 13.1565 4.29766 13.1565 3.625C13.1565 2.95234 13.7026 2.40625 14.3752 2.40625ZM4.06274 12.0625C2.92603 12.0625 2.00024 11.1367 2.00024 10C2.00024 8.86328 2.92603 7.9375 4.06274 7.9375C5.19946 7.9375 6.12524 8.86328 6.12524 10C6.12524 11.1367 5.19946 12.0625 4.06274 12.0625ZM14.3752 17.5938C13.7026 17.5938 13.1565 17.0477 13.1565 16.375C13.1565 15.7023 13.7026 15.1562 14.3752 15.1562C15.0479 15.1562 15.594 15.7023 15.594 16.375C15.594 17.0477 15.0479 17.5938 14.3752 17.5938Z"></path>
  </symbol>
  <symbol  xmlns="http://www.w3.org/2000/svg" viewBox="0 0 22 22" id="exit">
    <path d="M15.5371 1.92734C15.5084 1.91289 15.4765 1.90604 15.4444 1.90747C15.4123 1.90889 15.3811 1.91854 15.3538 1.93548C15.3265 1.95242 15.3041 1.97608 15.2885 2.00421C15.273 2.03233 15.265 2.06397 15.2652 2.09609V3.60078C15.2652 3.72969 15.3332 3.84922 15.441 3.91953C15.9695 4.2522 16.4586 4.64376 16.8988 5.08672C17.6652 5.85547 18.2676 6.74844 18.6871 7.74219C19.121 8.77093 19.3434 9.87648 19.341 10.993C19.341 12.1203 19.1207 13.2148 18.6871 14.2438C18.268 15.2361 17.6608 16.1378 16.8988 16.8992C16.1394 17.6631 15.2382 18.2713 14.2457 18.6898C13.2191 19.1258 12.1246 19.3461 10.9996 19.3461C9.8746 19.3461 8.78007 19.1258 7.7535 18.6898C6.76102 18.2713 5.85978 17.6631 5.10038 16.8992C4.33843 16.1378 3.73115 15.2361 3.3121 14.2438C2.87823 13.215 2.65584 12.1095 2.65819 10.993C2.65819 9.86563 2.8785 8.77109 3.3121 7.74219C3.73163 6.74844 4.33397 5.85547 5.10038 5.08672C5.54569 4.64141 6.03319 4.25234 6.55819 3.91953C6.66835 3.85156 6.73397 3.72969 6.73397 3.60078V2.09375C6.73397 1.95312 6.58632 1.86406 6.4621 1.925C3.18319 3.575 0.921473 6.95234 0.874598 10.8664C0.808973 16.4633 5.38632 21.1133 10.9808 21.125C16.5824 21.1367 21.1246 16.5945 21.1246 10.9906C21.1246 7.025 18.8512 3.59141 15.5371 1.92734ZM10.2496 12.125H11.7496C11.8527 12.125 11.9371 12.0406 11.9371 11.9375V1.0625C11.9371 0.959375 11.8527 0.875 11.7496 0.875H10.2496C10.1465 0.875 10.0621 0.959375 10.0621 1.0625V11.9375C10.0621 12.0406 10.1465 12.125 10.2496 12.125Z"></path>
  </symbol>
  <symbol xmlns="http://www.w3.org/2000/svg" viewBox="0 0 12 14" id="fire">
    <path d="M11.0328 6.33147C10.7295 5.64875 10.2885 5.03597 9.7375 4.53147L9.28281 4.11428C9.26737 4.10051 9.24879 4.09073 9.22869 4.08581C9.2086 4.08089 9.1876 4.08098 9.16754 4.08608C9.14749 4.09117 9.12899 4.1011 9.11367 4.11501C9.09835 4.12892 9.08668 4.14638 9.07969 4.16585L8.87656 4.74866C8.75 5.11429 8.51719 5.48772 8.1875 5.85491C8.16563 5.87835 8.14063 5.8846 8.12344 5.88616C8.10625 5.88772 8.07969 5.8846 8.05625 5.86272C8.03437 5.84397 8.02344 5.81585 8.025 5.78772C8.08281 4.8471 7.80156 3.78616 7.18594 2.63147C6.67656 1.6721 5.96875 0.92366 5.08437 0.401785L4.43906 0.0220976C4.35469 -0.0279024 4.24688 0.0377225 4.25156 0.13616L4.28594 0.88616C4.30937 1.39866 4.25 1.85179 4.10938 2.22835C3.9375 2.68929 3.69063 3.11741 3.375 3.50179C3.15535 3.76891 2.90639 4.01053 2.63281 4.2221C1.97391 4.72861 1.43815 5.37762 1.06562 6.12054C0.694022 6.86993 0.500453 7.695 0.5 8.53147C0.5 9.26897 0.645312 9.98303 0.932812 10.6565C1.21042 11.3049 1.61103 11.8933 2.1125 12.3893C2.61875 12.8893 3.20625 13.283 3.86094 13.5565C4.53906 13.8408 5.25781 13.9846 6 13.9846C6.74219 13.9846 7.46094 13.8408 8.13906 13.558C8.79214 13.2862 9.38601 12.8898 9.8875 12.3908C10.3937 11.8908 10.7906 11.3065 11.0672 10.658C11.3543 9.98644 11.5015 9.26341 11.5 8.53303C11.5 7.77053 11.3437 7.02991 11.0328 6.33147V6.33147ZM9.14062 11.633C8.30156 12.4643 7.1875 12.9205 6 12.9205C4.8125 12.9205 3.69844 12.4643 2.85938 11.633C2.02344 10.8033 1.5625 9.70335 1.5625 8.53303C1.5625 7.85335 1.71563 7.20179 2.01719 6.59554C2.31094 6.00335 2.74844 5.47366 3.27969 5.06585C3.6185 4.80677 3.9258 4.50891 4.19531 4.17835C4.58594 3.70179 4.89219 3.17053 5.10469 2.60022C5.19185 2.36497 5.25519 2.12156 5.29375 1.87366C5.67031 2.22053 5.98594 2.63928 6.25 3.12991C6.77188 4.10803 7.0125 4.97835 6.96562 5.71897C6.95443 5.8934 6.98291 6.06811 7.04895 6.22994C7.11498 6.39178 7.21684 6.53654 7.34688 6.65335C7.45956 6.75514 7.59135 6.83352 7.73458 6.88395C7.87782 6.93438 8.02965 6.95584 8.18125 6.9471C8.48906 6.93147 8.77187 6.79554 8.97812 6.56585C9.18594 6.33304 9.36562 6.09554 9.51562 5.85335C9.73438 6.13304 9.91719 6.43772 10.0625 6.76585C10.3109 7.32522 10.4375 7.92053 10.4375 8.53303C10.4375 9.70335 9.97656 10.8049 9.14062 11.633Z"></path>
  </symbol>
  <symbol  xmlns="http://www.w3.org/2000/svg" viewBox="0 0 14 12" id="photo">
    <path d="M13.5 0.5H0.5C0.223437 0.5 0 0.723437 0 1V11C0 11.2766 0.223437 11.5 0.5 11.5H13.5C13.7766 11.5 14 11.2766 14 11V1C14 0.723437 13.7766 0.5 13.5 0.5ZM12.875 10.375H1.125V9.75156L3.28906 7.18437L5.63438 9.96562L9.28281 5.64062L12.875 9.9V10.375ZM12.875 8.34688L9.37813 4.2C9.32813 4.14062 9.2375 4.14062 9.1875 4.2L5.63438 8.4125L3.38438 5.74531C3.33438 5.68594 3.24375 5.68594 3.19375 5.74531L1.125 8.19844V1.625H12.875V8.34688ZM3.75 5.125C3.93057 5.125 4.10937 5.08943 4.27619 5.02033C4.44301 4.95123 4.59459 4.84995 4.72227 4.72227C4.84995 4.59459 4.95123 4.44301 5.02033 4.27619C5.08943 4.10937 5.125 3.93057 5.125 3.75C5.125 3.56943 5.08943 3.39063 5.02033 3.22381C4.95123 3.05699 4.84995 2.90541 4.72227 2.77773C4.59459 2.65005 4.44301 2.54877 4.27619 2.47967C4.10937 2.41057 3.93057 2.375 3.75 2.375C3.38533 2.375 3.03559 2.51987 2.77773 2.77773C2.51987 3.03559 2.375 3.38533 2.375 3.75C2.375 4.11467 2.51987 4.46441 2.77773 4.72227C3.03559 4.98013 3.38533 5.125 3.75 5.125V5.125ZM3.75 3.3125C3.99219 3.3125 4.1875 3.50781 4.1875 3.75C4.1875 3.99219 3.99219 4.1875 3.75 4.1875C3.50781 4.1875 3.3125 3.99219 3.3125 3.75C3.3125 3.50781 3.50781 3.3125 3.75 3.3125Z" ></path>
  </symbol>
  <symbol  xmlns="http://www.w3.org/2000/svg" viewBox="0 0 14 12" id="video">
    <path d="M13.25 2.72344L11.25 3.875V1.5C11.25 0.948438 10.8016 0.5 10.25 0.5H1C0.448438 0.5 0 0.948438 0 1.5V10.5C0 11.0516 0.448438 11.5 1 11.5H10.25C10.8016 11.5 11.25 11.0516 11.25 10.5V8.125L13.25 9.27656C13.5828 9.46875 14 9.22812 14 8.84531V3.15625C14 2.77187 13.5828 2.53125 13.25 2.72344ZM10.125 10.375H1.125V1.625H10.125V10.375ZM12.875 7.76562L11.25 6.83125V5.17031L12.875 4.23438V7.76562ZM2.25 3.625H4C4.06875 3.625 4.125 3.56875 4.125 3.5V2.75C4.125 2.68125 4.06875 2.625 4 2.625H2.25C2.18125 2.625 2.125 2.68125 2.125 2.75V3.5C2.125 3.56875 2.18125 3.625 2.25 3.625Z" ></path>
  </symbol>
</svg>